<svg width="13" height="11" viewBox="0 0 13 11" fill="none" xmlns="http://www.w3.org/2000/svg">
<path d="M13 1.25044C12.5166 1.4625 12.0014 1.60306 11.4644 1.67131C12.0169 1.34144 12.4386 0.823062 12.6368 0.19825C12.1217 0.505375 11.5529 0.722313 10.9468 0.843375C10.4577 0.322563 9.76056 0 9.00006 0C7.52456 0 6.33669 1.19763 6.33669 2.66581C6.33669 2.87706 6.35456 3.08019 6.39844 3.27356C4.18275 3.1655 2.22219 2.10356 0.905125 0.485875C0.675187 0.884813 0.540313 1.34144 0.540313 1.833C0.540313 2.756 1.01562 3.57419 1.72413 4.04787C1.29594 4.03975 0.875875 3.91544 0.52 3.71962C0.52 3.72775 0.52 3.73831 0.52 3.74887C0.52 5.044 1.44381 6.11975 2.65525 6.36756C2.43831 6.42688 2.20187 6.45531 1.9565 6.45531C1.78587 6.45531 1.61362 6.44556 1.45194 6.40981C1.79725 7.46525 2.77713 8.24119 3.94225 8.26637C3.0355 8.97569 1.88419 9.40306 0.637812 9.40306C0.41925 9.40306 0.209625 9.39331 0 9.3665C1.18056 10.1278 2.57969 10.5625 4.0885 10.5625C8.99275 10.5625 11.674 6.5 11.674 2.97862C11.674 2.86081 11.6699 2.74706 11.6643 2.63412C12.1932 2.25875 12.6376 1.78994 13 1.25044Z" fill="black"/>
</svg>
