<svg width="79" height="21" viewBox="0 0 79 21" fill="none" xmlns="http://www.w3.org/2000/svg">
<path d="M4.9589 16.8199H11.4549V20.6479H-9.56245e-05V0.289949H4.9589V16.8199ZM23.4482 20.8509C21.5342 20.8509 19.7749 20.4063 18.1702 19.5169C16.5849 18.6276 15.3186 17.3903 14.3712 15.8049C13.4432 14.2003 12.9792 12.4023 12.9792 10.4109C12.9792 8.41962 13.4432 6.63128 14.3712 5.04595C15.3186 3.46062 16.5849 2.22328 18.1702 1.33395C19.7749 0.444616 21.5342 -5.11408e-05 23.4482 -5.11408e-05C25.3622 -5.11408e-05 27.1119 0.444616 28.6972 1.33395C30.3019 2.22328 31.5586 3.46062 32.4672 5.04595C33.3952 6.63128 33.8592 8.41962 33.8592 10.4109C33.8592 12.4023 33.3952 14.2003 32.4672 15.8049C31.5392 17.3903 30.2826 18.6276 28.6972 19.5169C27.1119 20.4063 25.3622 20.8509 23.4482 20.8509ZM23.4482 16.3269C25.0722 16.3269 26.3676 15.7856 27.3342 14.7029C28.3202 13.6203 28.8132 12.1896 28.8132 10.4109C28.8132 8.61295 28.3202 7.18228 27.3342 6.11895C26.3676 5.03628 25.0722 4.49495 23.4482 4.49495C21.8049 4.49495 20.4902 5.02661 19.5042 6.08995C18.5376 7.15328 18.0542 8.59362 18.0542 10.4109C18.0542 12.2089 18.5376 13.6493 19.5042 14.7319C20.4902 15.7953 21.8049 16.3269 23.4482 16.3269ZM50.1321 6.72795C49.7647 6.05128 49.2331 5.53895 48.5371 5.19095C47.8604 4.82361 47.0581 4.63995 46.1301 4.63995C44.5254 4.63995 43.2397 5.17161 42.2731 6.23495C41.3064 7.27895 40.8231 8.68062 40.8231 10.4399C40.8231 12.3153 41.3257 13.7846 42.3311 14.8479C43.3557 15.8919 44.7574 16.4139 46.5361 16.4139C47.7541 16.4139 48.7787 16.1046 49.6101 15.4859C50.4607 14.8673 51.0794 13.9779 51.4661 12.8179H45.1731V9.16395H55.9611V13.7749C55.5937 15.0123 54.9654 16.1626 54.0761 17.2259C53.2061 18.2893 52.0944 19.1496 50.7411 19.8069C49.3877 20.4643 47.8604 20.7929 46.1591 20.7929C44.1484 20.7929 42.3504 20.3579 40.7651 19.4879C39.1991 18.5986 37.9714 17.3709 37.0821 15.8049C36.2121 14.2389 35.7771 12.4506 35.7771 10.4399C35.7771 8.42928 36.2121 6.64095 37.0821 5.07495C37.9714 3.48962 39.1991 2.26195 40.7651 1.39195C42.3311 0.502615 44.1194 0.0579481 46.1301 0.0579481C48.5661 0.0579481 50.6154 0.647615 52.2781 1.82695C53.9601 3.00628 55.0717 4.63995 55.6131 6.72795H50.1321ZM68.3359 20.8509C66.4219 20.8509 64.6626 20.4063 63.0579 19.5169C61.4726 18.6276 60.2062 17.3903 59.2589 15.8049C58.3309 14.2003 57.8669 12.4023 57.8669 10.4109C57.8669 8.41962 58.3309 6.63128 59.2589 5.04595C60.2062 3.46062 61.4726 2.22328 63.0579 1.33395C64.6626 0.444616 66.4219 -5.11408e-05 68.3359 -5.11408e-05C70.2499 -5.11408e-05 71.9996 0.444616 73.5849 1.33395C75.1896 2.22328 76.4462 3.46062 77.3549 5.04595C78.2829 6.63128 78.7469 8.41962 78.7469 10.4109C78.7469 12.4023 78.2829 14.2003 77.3549 15.8049C76.4269 17.3903 75.1702 18.6276 73.5849 19.5169C71.9996 20.4063 70.2499 20.8509 68.3359 20.8509ZM68.3359 16.3269C69.9599 16.3269 71.2552 15.7856 72.2219 14.7029C73.2079 13.6203 73.7009 12.1896 73.7009 10.4109C73.7009 8.61295 73.2079 7.18228 72.2219 6.11895C71.2552 5.03628 69.9599 4.49495 68.3359 4.49495C66.6926 4.49495 65.3779 5.02661 64.3919 6.08995C63.4252 7.15328 62.9419 8.59362 62.9419 10.4109C62.9419 12.2089 63.4252 13.6493 64.3919 14.7319C65.3779 15.7953 66.6926 16.3269 68.3359 16.3269Z" fill="#1090CB"/>
</svg>
