<svg width="44" height="12" viewBox="0 0 44 12" fill="none" xmlns="http://www.w3.org/2000/svg">
<path d="M2.73606 9.28009H6.32006V11.3921H5.6684e-05V0.160089H2.73606V9.28009ZM12.9371 11.5041C11.8811 11.5041 10.9104 11.2588 10.0251 10.7681C9.15039 10.2774 8.45172 9.59476 7.92906 8.72009C7.41706 7.83476 7.16106 6.84276 7.16106 5.74409C7.16106 4.64542 7.41706 3.65876 7.92906 2.78409C8.45172 1.90942 9.15039 1.22676 10.0251 0.73609C10.9104 0.245423 11.8811 8.96454e-05 12.9371 8.96454e-05C13.9931 8.96454e-05 14.9584 0.245423 15.8331 0.73609C16.7184 1.22676 17.4117 1.90942 17.9131 2.78409C18.4251 3.65876 18.6811 4.64542 18.6811 5.74409C18.6811 6.84276 18.4251 7.83476 17.9131 8.72009C17.4011 9.59476 16.7077 10.2774 15.8331 10.7681C14.9584 11.2588 13.9931 11.5041 12.9371 11.5041ZM12.9371 9.00809C13.8331 9.00809 14.5477 8.70942 15.0811 8.11209C15.6251 7.51476 15.8971 6.72542 15.8971 5.74409C15.8971 4.75209 15.6251 3.96276 15.0811 3.37609C14.5477 2.77876 13.8331 2.48009 12.9371 2.48009C12.0304 2.48009 11.3051 2.77342 10.7611 3.36009C10.2277 3.94676 9.96106 4.74142 9.96106 5.74409C9.96106 6.73609 10.2277 7.53076 10.7611 8.12809C11.3051 8.71476 12.0304 9.00809 12.9371 9.00809ZM27.6592 3.71209C27.4565 3.33876 27.1632 3.05609 26.7792 2.86409C26.4058 2.66142 25.9632 2.56009 25.4512 2.56009C24.5658 2.56009 23.8565 2.85342 23.3232 3.44009C22.7898 4.01609 22.5232 4.78942 22.5232 5.76009C22.5232 6.79476 22.8005 7.60542 23.3552 8.19209C23.9205 8.76809 24.6938 9.05609 25.6752 9.05609C26.3472 9.05609 26.9125 8.88542 27.3712 8.54409C27.8405 8.20276 28.1818 7.71209 28.3952 7.07209H24.9232V5.05609H30.8752V7.60009C30.6725 8.28276 30.3258 8.91742 29.8352 9.50409C29.3552 10.0908 28.7418 10.5654 27.9952 10.9281C27.2485 11.2908 26.4058 11.4721 25.4672 11.4721C24.3578 11.4721 23.3658 11.2321 22.4912 10.7521C21.6272 10.2614 20.9498 9.58409 20.4592 8.72009C19.9792 7.85609 19.7392 6.86942 19.7392 5.76009C19.7392 4.65076 19.9792 3.66409 20.4592 2.80009C20.9498 1.92542 21.6272 1.24809 22.4912 0.768089C23.3552 0.277423 24.3418 0.0320892 25.4512 0.0320892C26.7952 0.0320892 27.9258 0.357423 28.8432 1.00809C29.7712 1.65876 30.3845 2.56009 30.6832 3.71209H27.6592ZM37.7027 11.5041C36.6467 11.5041 35.676 11.2588 34.7907 10.7681C33.916 10.2774 33.2173 9.59476 32.6947 8.72009C32.1827 7.83476 31.9267 6.84276 31.9267 5.74409C31.9267 4.64542 32.1827 3.65876 32.6947 2.78409C33.2173 1.90942 33.916 1.22676 34.7907 0.73609C35.676 0.245423 36.6467 8.96454e-05 37.7027 8.96454e-05C38.7587 8.96454e-05 39.724 0.245423 40.5987 0.73609C41.484 1.22676 42.1773 1.90942 42.6787 2.78409C43.1907 3.65876 43.4467 4.64542 43.4467 5.74409C43.4467 6.84276 43.1907 7.83476 42.6787 8.72009C42.1667 9.59476 41.4733 10.2774 40.5987 10.7681C39.724 11.2588 38.7587 11.5041 37.7027 11.5041ZM37.7027 9.00809C38.5987 9.00809 39.3133 8.70942 39.8467 8.11209C40.3907 7.51476 40.6627 6.72542 40.6627 5.74409C40.6627 4.75209 40.3907 3.96276 39.8467 3.37609C39.3133 2.77876 38.5987 2.48009 37.7027 2.48009C36.796 2.48009 36.0707 2.77342 35.5267 3.36009C34.9933 3.94676 34.7267 4.74142 34.7267 5.74409C34.7267 6.73609 34.9933 7.53076 35.5267 8.12809C36.0707 8.71476 36.796 9.00809 37.7027 9.00809Z" fill="#00329B"/>
</svg>
