<svg width="55" height="609" viewBox="0 0 55 609" fill="none" xmlns="http://www.w3.org/2000/svg">
<path d="M-391.591 0.0580718C-445.452 -1.66818 -477.316 35.2762 -501.572 83.3967C-545.833 171.201 -560.967 276.157 -546.418 365.515C-531.868 454.873 -479.047 516.999 -426.364 554.226C-346.508 610.655 -325.59 612.264 -247.5 606.682C-190.503 602.607 -159.808 595.228 -93.8058 561.507C-27.8039 527.786 76.4386 464.776 50.4221 374.21C29.8276 302.518 -112.879 281.976 -112.879 281.976C-112.879 281.976 -179.389 274.376 -219.359 243.412C-260.729 211.364 -286.937 127.7 -286.937 127.7C-286.937 127.7 -327.164 2.12298 -391.591 0.0580718Z" fill="#08D3BB"/>
</svg>
